<svg xmlns="http://www.w3.org/2000/svg" viewBox="0 0 398 398" width="398" height="398">
  <circle cx="199.0" cy="199.0" r="193" fill="#becdc4"/>
  <circle cx="199.0" cy="199.0" r="170.5" fill="none" stroke="#ffffff" stroke-width="5"/>
  <g fill="#ffffff">
    <path d="M 154,144 L 153,146 L 154,149 L 155,150 L 159,150 L 160,149 L 160,144 L 158,143 Z"/>
    <path d="M 172,144 L 171,146 L 172,149 L 173,150 L 177,150 L 178,149 L 178,144 L 176,143 Z"/>
    <path d="M 256,159 L 255,160 L 252,160 L 243,165 L 237,172 L 235,176 L 235,179 L 234,180 L 234,216 L 239,226 L 247,233 L 255,236 L 270,236 L 279,232 L 286,225 L 289,220 L 289,218 L 290,217 L 290,212 L 291,211 L 282,211 L 282,215 L 279,221 L 271,227 L 269,227 L 268,228 L 256,228 L 250,225 L 244,219 L 242,214 L 242,181 L 243,180 L 243,178 L 250,170 L 257,167 L 268,167 L 273,169 L 280,176 L 282,180 L 282,184 L 283,185 L 291,185 L 290,183 L 290,178 L 286,170 L 277,162 L 272,160 L 269,160 L 268,159 Z"/>
    <path d="M 96,160 L 88,160 L 88,216 L 86,221 L 80,227 L 78,227 L 77,228 L 70,228 L 66,226 L 61,221 L 60,216 L 59,215 L 52,215 L 52,220 L 54,225 L 60,232 L 65,235 L 67,235 L 68,236 L 79,236 L 80,235 L 82,235 L 86,233 L 92,227 L 95,221 L 95,218 L 96,217 Z"/>
    <path d="M 138,160 L 138,214 L 142,224 L 150,232 L 160,236 L 171,236 L 179,233 L 188,225 L 191,219 L 192,212 L 193,211 L 193,160 L 185,160 L 185,211 L 184,212 L 184,215 L 182,219 L 175,226 L 170,228 L 161,228 L 156,226 L 150,221 L 147,216 L 147,214 L 146,213 L 146,160 Z"/>
    <path d="M 331,160 L 331,235 L 339,235 L 339,160 Z"/>
  </g>
</svg>
